<svg xmlns="http://www.w3.org/2000/svg" viewBox="-100 -87 200 174">
<g fill="#F0E48D" stroke="black" opacity="1">
  <polygon points="100,0 50,87 -50,87 -100,0 -50,-87 50,-87"></polygon>
  <g class="tile">
    <path d="M -75.34 43.5 L -43.3 25" stroke="#FFFFFF" stroke-width="12" stroke-dasharray="0"></path>
    <path d="M 75.34 -43.5 L 43.3 -25" stroke="#FFFFFF" stroke-width="12" stroke-dasharray="0"></path>
    <path d="M -75.34 43.5 L -43.3 25" stroke="#000000" stroke-width="9" stroke-dasharray="0"></path>
    <path d="M 75.34 -43.5 L 43.3 -25" stroke="#000000" stroke-width="9" stroke-dasharray="0"></path>
    <g transform="translate(-43.3 25) rotate(60)">
      <g transform="rotate(0)">
        <g transform="translate(0 0) rotate(-60)">
          <g transform="rotate(0)">
            <circle r="25" fill="white"></circle>
            <text fill="black" font-size="22px" transform="scale(1.0,1)" dominant-baseline="central">B&amp;O</text>
          </g>
        </g>
      </g>
      <g transform="rotate(170)">
        <g transform="translate(42 0) rotate(-230)">
          <g transform="rotate(0)">
            <circle r="15" fill="white" style="stroke: rgb(119, 119, 119);"></circle>
            <text class="number" fill="black" dominant-baseline="central" transform="translate(0 -1)">30</text>
          </g>
        </g>
      </g>
    </g>
    <g transform="translate(43.3 -25) rotate(240)">
      <g transform="rotate(0)">
        <g transform="translate(0 0) rotate(-240)">
          <g transform="rotate(0)">
            <circle r="25" fill="white"></circle>
          </g>
        </g>
      </g>
      <g transform="rotate(170)">
        <g transform="translate(42 0) rotate(-410)">
          <g transform="rotate(0)">
            <circle r="15" fill="white" style="stroke: rgb(119, 119, 119);"></circle>
            <text class="number" fill="black" dominant-baseline="central" transform="translate(0 -1)">30</text>
          </g>
        </g>
      </g>
    </g>
    <g transform="translate(0 -60) rotate(0)">
      <text class="tile__text" transform="scale(1.5)">OO</text>
    </g>
    <g transform="rotate(0)">
      <g transform="translate(-50 -45)">
        <text class="number" fill="black">40</text>
        <g transform="translate(0 17) scale(0.7)">
          <path class="tile__water" d="M -15 -7 Q -7.5 -15, 0 -7 S 7.5 1, 15 -7M -15 -2  Q -7.5 -10, 0 -2  S 7.5 6, 15 -2"></path>
        </g>
      </g>
    </g>
    <g transform="rotate(0)">
      <g class="tile__text" transform="scale(1.1) translate(0 56)" stroke-width="0.5">
        <rect height="19" width="80" fill="#FFFFFF" fill-opacity="0.5" stroke="none" x="-40" y="-9.5"></rect>
        <text transform="translate(0 1)">Baltimore</text>
      </g>
    </g>
  </g>
</g>
</svg>
