<svg xmlns="http://www.w3.org/2000/svg" viewBox="-100 -87 200 174">
<g fill="#CCCEC2" stroke="black" opacity="1">
  <polygon points="100,0 50,87 -50,87 -100,0 -50,-87 50,-87"></polygon>
  <g class="tile">
    <path d="M 0 -87 A 151.54 151.54 0 0 0 20.09 -11.6" stroke="#FFFFFF" stroke-width="12" stroke-dasharray="0"></path>
    <path d="M 75.34 43.5 A 151.52 151.52 0 0 1 20.09 -11.6" stroke="#FFFFFF" stroke-width="12" stroke-dasharray="0"></path>
    <path d="M 0 -87 A 151.54 151.54 0 0 0 20.09 -11.6" stroke="#000000" stroke-width="9" stroke-dasharray="0"></path>
    <path d="M 75.34 43.5 A 151.52 151.52 0 0 1 20.09 -11.6" stroke="#000000" stroke-width="9" stroke-dasharray="0"></path>
    <g>
      <rect transform="translate(20.09 -11.6) rotate(150)" x="-17" y="-4.25" width="34" height="8.5" fill="#000000" stroke="none" stroke-width="4"></rect>
      <g transform="translate(20.09 -11.6)">
        <g transform="rotate(150)">
          <g transform="translate(38 0) rotate(0)">
            <g transform="rotate(-150)">
              <circle r="15" fill="white" style="stroke: rgb(119, 119, 119);"></circle>
              <text class="number" fill="black" dominant-baseline="central" transform="translate(0 -1)">30</text>
            </g>
          </g>
        </g>
      </g>
    </g>
    <g transform="rotate(0)">
      <g class="tile__text" transform="scale(1.1) translate(0 40)" stroke-width="0.5">
        <rect height="34" width="80" fill="#FFFFFF" fill-opacity="0.5" stroke="none" x="-40" y="-9.5"></rect>
        <text transform="translate(0 1)">Delmarva</text>
        <text transform="translate(0 16)">Peninsula</text>
      </g>
    </g>
  </g>
</g>
</svg>
